<?xml version="1.0" encoding="UTF-8" ?>
<!DOCTYPE svg PUBLIC "-//W3C//DTD SVG 1.1//EN" "http://www.w3.org/Graphics/SVG/1.1/DTD/svg11.dtd">
<svg width="300pt" height="300pt" viewBox="0 0 300 300" version="1.1" xmlns="http://www.w3.org/2000/svg">
<g id="#ff914dff">
<path fill="#ff914d" opacity="1.00" d=" M 97.01 48.98 C 103.83 41.93 114.46 38.89 123.98 41.33 C 130.91 43.05 137.83 45.98 143.04 51.00 C 144.11 51.69 143.75 53.12 143.00 53.89 C 140.37 57.60 137.60 61.21 134.98 64.92 C 131.47 60.69 126.91 56.63 121.09 56.63 C 114.35 55.82 107.27 62.04 108.55 69.02 C 109.37 73.69 113.90 76.24 117.71 78.32 C 124.93 81.79 132.67 84.82 138.46 90.57 C 142.10 94.20 144.13 99.02 145.23 103.97 C 145.54 107.68 145.48 111.40 145.26 115.12 L 144.83 115.77 C 144.57 117.75 144.40 119.77 143.74 121.66 C 140.94 128.92 136.11 135.46 129.11 139.13 C 126.24 140.54 123.15 141.37 120.08 142.18 C 112.69 143.02 104.80 142.55 98.24 138.74 C 91.78 135.05 87.03 129.10 83.25 122.81 C 87.29 118.76 91.71 115.13 95.86 111.21 C 97.92 117.55 102.65 122.80 108.84 125.34 C 112.55 125.74 116.76 126.34 119.95 123.89 C 125.21 120.45 126.69 113.41 125.25 107.60 C 123.64 103.24 119.49 100.50 115.48 98.58 C 107.82 94.96 99.46 91.81 93.77 85.24 C 90.80 81.85 89.61 77.41 88.76 73.09 C 88.73 71.01 88.73 68.93 88.75 66.85 C 89.74 60.28 92.25 53.76 97.01 48.98 Z" />
</g>
<g id="#33a756fd">
<path fill="#33a756" opacity="1.00" d=" M 178.68 54.22 C 180.12 50.09 182.95 46.42 183.01 41.87 C 183.35 46.27 185.86 49.94 187.41 53.93 C 188.25 58.60 183.07 61.59 183.03 66.24 C 183.23 61.63 178.11 58.73 178.68 54.22 Z" />
</g>
<g id="#33a656fd">
<path fill="#33a656" opacity="1.00" d=" M 167.30 59.88 C 170.21 62.93 174.36 63.97 177.96 65.92 C 181.36 67.90 180.77 72.35 181.69 75.65 C 182.60 75.66 183.52 75.66 184.43 75.67 C 185.42 72.27 184.82 67.57 188.54 65.72 C 192.09 63.97 195.92 62.74 199.04 60.22 C 196.13 63.58 195.82 68.11 194.16 72.04 C 191.56 75.60 186.33 74.95 183.10 77.82 C 179.84 74.85 174.36 75.65 171.87 71.83 C 170.41 67.82 169.81 63.46 167.30 59.88 Z" />
<path fill="#33a656" opacity="1.00" d=" M 111.57 226.43 C 112.34 226.43 113.87 226.41 114.63 226.40 C 114.66 228.10 114.70 229.81 114.73 231.51 C 115.58 231.51 116.43 231.50 117.29 231.50 C 117.33 229.77 117.38 228.02 117.43 226.29 C 118.33 226.33 120.14 226.42 121.04 226.46 C 121.12 228.20 121.21 229.95 121.30 231.70 C 122.25 231.60 123.20 231.50 124.15 231.41 C 124.18 229.72 124.20 228.02 124.23 226.34 C 125.10 226.35 126.85 226.36 127.72 226.36 C 127.73 227.80 127.74 229.24 127.75 230.68 C 128.39 231.46 129.03 232.25 129.68 233.03 C 129.03 233.88 128.38 234.72 127.73 235.57 C 127.75 238.12 127.76 240.67 127.76 243.23 C 127.31 243.80 126.39 244.94 125.94 245.51 C 123.07 245.42 120.21 245.46 117.35 245.51 C 116.06 241.81 117.75 237.42 115.59 234.09 C 115.20 238.29 115.29 242.51 114.64 246.69 C 119.56 246.80 124.51 246.44 129.37 247.38 C 129.36 248.40 129.34 249.42 129.33 250.45 C 123.39 250.56 117.45 250.67 111.52 250.29 C 111.49 250.07 111.44 249.63 111.42 249.41 C 110.47 243.98 111.54 238.33 109.83 233.03 C 110.70 230.91 111.21 228.68 111.57 226.43 M 121.37 234.66 C 121.33 237.04 121.30 239.42 121.28 241.80 C 121.89 241.80 123.13 241.79 123.75 241.79 C 123.73 239.41 123.71 237.03 123.67 234.65 C 123.10 234.65 121.95 234.66 121.37 234.66 Z" />
<path fill="#33a656" opacity="1.00" d=" M 147.73 226.34 C 150.63 226.25 153.54 226.26 156.45 226.37 C 157.69 230.45 157.20 234.74 157.26 238.95 C 157.24 242.78 157.60 246.69 156.42 250.41 C 153.51 250.53 150.60 250.56 147.69 250.57 C 147.69 244.06 147.85 237.55 147.69 231.03 C 147.66 229.47 147.68 227.90 147.73 226.34 M 151.46 229.62 C 151.28 235.37 151.32 241.12 151.35 246.87 C 151.91 246.87 153.03 246.87 153.59 246.87 C 153.57 241.14 153.60 235.40 153.46 229.67 C 152.96 229.66 151.96 229.63 151.46 229.62 Z" />
</g>
<g id="#35a958ff">
<path fill="#35a958" opacity="1.00" d=" M 163.90 76.20 C 167.42 79.81 172.30 81.20 176.73 83.27 C 181.52 85.79 179.96 91.99 181.96 96.21 C 182.85 95.98 183.75 95.74 184.64 95.50 C 184.67 95.36 184.72 95.10 184.75 94.97 C 185.52 91.95 185.59 88.74 186.78 85.84 C 188.57 82.92 192.12 82.07 195.10 80.87 C 197.85 79.92 200.10 78.00 202.21 76.07 C 199.34 79.83 198.21 84.41 197.03 88.89 C 195.24 94.73 188.02 94.10 183.61 96.84 C 183.44 102.92 183.45 109.00 183.76 115.07 C 187.20 113.28 185.28 108.35 187.45 105.56 C 189.65 102.46 193.56 101.65 196.85 100.23 C 199.82 99.04 202.26 96.92 204.61 94.81 C 201.72 98.35 200.12 102.67 199.27 107.12 C 198.65 110.75 196.24 114.30 192.41 115.02 C 191.98 115.16 191.12 115.44 190.69 115.58 L 190.62 116.31 C 190.50 128.20 190.54 140.10 190.72 151.98 C 190.63 153.52 190.56 155.06 190.51 156.61 C 190.97 166.99 190.02 177.35 190.41 187.72 L 190.42 189.29 C 190.35 191.77 190.23 194.26 190.46 196.74 L 190.57 197.58 L 190.65 198.21 C 185.24 197.40 179.79 198.47 174.38 197.91 C 174.41 185.50 174.38 173.09 174.37 160.68 C 164.38 160.68 154.40 160.70 144.41 160.67 C 144.35 173.06 144.37 185.45 144.40 197.83 C 139.00 197.89 133.61 197.86 128.22 197.87 C 128.27 180.59 128.19 163.30 128.26 146.02 C 128.27 144.12 127.98 142.23 127.64 140.37 C 128.01 140.06 128.75 139.44 129.11 139.13 C 136.11 135.46 140.94 128.92 143.74 121.66 L 144.11 120.91 C 144.71 129.77 144.24 138.66 144.37 147.52 C 154.38 147.48 164.39 147.56 174.40 147.49 C 174.34 136.70 174.46 125.92 174.32 115.13 C 172.61 114.48 170.65 114.04 169.44 112.55 C 166.98 109.88 166.87 106.07 165.82 102.77 C 165.08 99.99 163.48 97.57 161.89 95.22 C 164.81 97.86 168.15 100.02 171.92 101.23 C 175.57 102.39 179.67 104.73 179.90 109.02 C 180.67 111.02 179.70 114.34 182.40 115.06 C 182.63 109.00 182.57 102.94 182.46 96.88 C 178.15 93.92 170.76 94.81 169.12 88.83 C 167.94 84.41 166.94 79.79 163.90 76.20 Z" />
</g>
<g id="#1d4c2c70">
<path fill="#1d4c2c" opacity="0.44" d=" M 182.24 79.20 L 184.12 79.10 C 184.12 84.39 183.81 89.72 184.75 94.97 C 184.72 95.10 184.67 95.36 184.64 95.50 C 183.75 95.74 182.85 95.98 181.96 96.21 C 182.35 90.54 182.09 84.86 182.24 79.20 Z" />
</g>
<g id="#c7713cca">
<path fill="#c7713c" opacity="0.79" d=" M 190.69 115.58 C 191.12 115.44 191.98 115.16 192.41 115.02 C 208.66 116.44 222.29 130.80 223.33 146.99 C 224.15 156.97 220.44 167.25 213.32 174.32 C 209.95 177.88 205.61 180.28 201.32 182.56 C 200.47 187.42 203.11 193.93 198.55 197.42 C 196.22 198.59 192.79 198.91 190.57 197.58 L 190.46 196.74 C 193.86 196.82 197.73 197.12 199.91 193.93 C 197.09 193.72 194.25 193.68 191.43 193.61 C 191.43 192.97 191.44 192.34 191.47 191.70 C 194.17 191.83 196.88 191.89 199.59 191.91 C 199.58 191.28 199.55 190.00 199.54 189.36 C 196.50 189.33 193.46 189.32 190.42 189.29 L 190.41 187.72 C 193.45 187.70 196.49 187.69 199.54 187.67 C 199.56 187.04 199.61 185.77 199.63 185.14 C 196.69 185.06 193.75 185.12 190.83 185.44 C 190.79 184.48 190.75 183.52 190.71 182.56 C 192.97 183.11 195.30 183.34 197.62 183.43 C 197.08 181.98 197.33 179.52 195.10 179.76 C 194.02 179.93 191.84 180.29 190.75 180.46 C 190.77 179.49 190.77 178.51 190.78 177.54 C 191.66 177.69 193.44 177.98 194.32 178.13 C 194.81 175.01 194.07 171.58 195.63 168.71 C 198.10 164.94 203.54 163.56 204.64 158.81 C 205.04 155.90 205.47 152.13 202.84 150.09 C 200.62 148.34 197.71 149.52 195.26 150.03 C 195.85 150.77 197.03 152.24 197.61 152.98 C 197.46 155.32 197.40 158.14 194.97 159.33 C 192.92 159.73 191.81 157.77 190.51 156.61 C 190.56 155.06 190.63 153.52 190.72 151.98 C 192.18 153.99 192.95 156.38 194.05 158.58 C 195.24 156.90 195.88 154.98 195.89 152.93 C 194.62 152.36 193.36 151.78 192.10 151.19 C 192.00 150.37 191.90 149.55 191.81 148.74 C 195.29 149.87 198.41 146.11 201.88 147.77 C 206.99 149.64 207.81 156.33 205.71 160.72 C 204.02 164.22 200.35 165.97 197.73 168.64 C 195.53 171.07 196.34 174.61 196.30 177.58 C 198.05 178.92 198.90 180.86 199.15 183.00 C 202.69 179.08 208.08 177.60 211.66 173.70 C 221.59 164.29 224.70 148.54 218.91 136.10 C 214.16 124.82 202.68 117.32 190.62 116.31 L 190.69 115.58 Z" />
</g>
<g id="#33a756fe">
<path fill="#33a756" opacity="1.00" d=" M 145.04 225.76 C 145.86 225.70 146.68 225.64 147.51 225.59 C 147.38 226.42 147.12 228.07 146.99 228.89 C 146.54 229.24 145.64 229.93 145.19 230.28 C 144.90 230.40 144.32 230.66 144.03 230.79 L 143.55 230.97 C 144.49 231.11 146.35 231.38 147.28 231.51 C 147.30 232.29 147.33 233.84 147.34 234.61 C 146.59 234.64 145.07 234.70 144.31 234.73 C 144.29 239.95 144.32 245.18 144.25 250.41 C 143.38 250.41 141.65 250.41 140.78 250.41 C 140.72 245.18 140.74 239.96 140.68 234.73 C 139.93 234.69 138.42 234.60 137.66 234.56 C 137.66 233.79 137.66 232.25 137.67 231.48 C 138.47 231.43 140.07 231.31 140.87 231.26 C 140.78 231.01 140.61 230.50 140.52 230.25 C 138.72 229.73 137.68 228.44 137.43 226.58 C 139.98 226.42 142.57 226.51 145.04 225.76 Z" />
</g>
<g id="#fc8e4afd">
<path fill="#fc8e4a" opacity="1.00" d=" M 205.27 225.59 C 206.31 225.60 207.35 225.62 208.39 225.63 C 208.40 226.10 208.43 227.02 208.44 227.49 C 210.06 227.52 211.68 227.57 213.31 227.62 C 213.31 228.34 213.32 229.77 213.33 230.48 C 211.70 230.54 210.07 230.61 208.44 230.67 C 208.44 231.86 208.44 233.06 208.44 234.26 C 210.10 234.28 211.77 234.30 213.43 234.32 C 213.44 235.13 213.45 236.75 213.45 237.56 C 210.80 237.53 208.16 237.48 205.52 237.38 C 205.21 233.73 205.19 230.06 205.26 226.41 C 205.27 226.20 205.27 225.80 205.27 225.59 Z" />
</g>
<g id="#0c211434">
<path fill="#0c2114" opacity="0.20" d=" M 110.34 225.96 C 114.13 226.18 117.93 226.09 121.72 225.88 C 121.95 227.63 122.19 229.38 122.43 231.14 C 122.68 229.38 122.93 227.64 123.18 225.89 C 124.80 225.83 126.42 225.78 128.04 225.73 C 128.92 228.88 130.67 232.13 129.58 235.47 C 128.78 238.62 128.93 241.94 128.05 245.08 C 127.52 245.19 126.47 245.40 125.94 245.51 C 126.39 244.94 127.31 243.80 127.76 243.23 C 127.76 240.67 127.75 238.12 127.73 235.57 C 128.38 234.72 129.03 233.88 129.68 233.03 C 129.03 232.25 128.39 231.46 127.75 230.68 C 127.74 229.24 127.73 227.80 127.72 226.36 C 126.85 226.36 125.10 226.35 124.23 226.34 C 124.20 228.02 124.18 229.72 124.15 231.41 C 123.20 231.50 122.25 231.60 121.30 231.70 C 121.21 229.95 121.12 228.20 121.04 226.46 C 120.14 226.42 118.33 226.33 117.43 226.29 C 117.38 228.02 117.33 229.77 117.29 231.50 C 116.43 231.50 115.58 231.51 114.73 231.51 C 114.70 229.81 114.66 228.10 114.63 226.40 C 113.87 226.41 112.34 226.43 111.57 226.43 C 111.21 228.68 110.70 230.91 109.83 233.03 C 111.54 238.33 110.47 243.98 111.42 249.41 C 109.04 248.62 110.31 245.81 110.07 244.02 C 110.60 240.29 109.40 236.70 108.90 233.05 C 109.09 230.64 109.81 228.31 110.34 225.96 Z" />
<path fill="#0c2114" opacity="0.20" d=" M 137.23 249.95 C 136.83 242.18 137.50 234.37 137.43 226.58 C 137.68 228.44 138.72 229.73 140.52 230.25 C 140.61 230.50 140.78 231.01 140.87 231.26 C 140.07 231.31 138.47 231.43 137.67 231.48 C 137.66 232.25 137.66 233.79 137.66 234.56 C 138.42 234.60 139.93 234.69 140.68 234.73 C 140.74 239.96 140.72 245.18 140.78 250.41 C 141.65 250.41 143.38 250.41 144.25 250.41 C 144.32 245.18 144.29 239.95 144.31 234.73 C 145.07 234.70 146.59 234.64 147.34 234.61 C 147.33 233.84 147.30 232.29 147.28 231.51 C 146.35 231.38 144.49 231.11 143.55 230.97 L 144.03 230.79 C 145.25 230.83 146.47 230.91 147.69 231.03 C 147.85 237.55 147.69 244.06 147.69 250.57 C 144.35 251.46 140.07 252.56 137.23 249.95 M 138.29 235.33 C 138.41 240.20 138.24 245.07 137.53 249.89 C 138.17 249.65 139.45 249.18 140.09 248.94 C 140.78 244.44 140.34 239.86 140.33 235.33 L 138.29 235.33 M 144.73 235.28 C 144.71 239.85 144.36 244.45 144.94 249.00 C 145.53 249.21 146.72 249.63 147.31 249.84 C 146.44 245.03 146.55 240.14 146.74 235.28 L 144.73 235.28 Z" />
</g>
<g id="#f98d4bfa">
<path fill="#f98d4b" opacity="0.98" d=" M 165.09 230.38 C 165.69 228.35 166.61 226.16 168.83 225.48 C 173.92 228.34 180.35 224.32 185.42 227.41 C 185.32 230.75 185.34 234.10 185.37 237.45 C 184.91 237.62 184.01 237.97 183.55 238.14 C 181.25 238.37 178.93 238.37 176.63 238.38 C 176.61 234.66 176.80 230.94 176.63 227.23 C 176.04 227.88 175.50 228.57 175.02 229.31 C 174.42 229.37 173.23 229.50 172.64 229.56 C 172.65 230.02 172.68 230.95 172.70 231.41 C 173.59 231.44 175.39 231.49 176.29 231.51 C 176.04 233.40 174.57 234.27 172.94 234.85 C 174.86 235.73 176.59 236.94 176.65 239.29 C 179.15 239.47 181.90 238.89 184.21 240.07 C 184.94 243.46 184.47 246.96 184.52 250.39 C 178.46 250.72 172.39 250.59 166.33 250.63 C 166.09 245.76 166.91 240.78 165.69 235.99 C 167.00 235.62 168.32 235.25 169.62 234.82 C 168.65 234.67 166.71 234.37 165.74 234.22 C 165.71 233.59 165.64 232.31 165.61 231.67 L 170.87 230.73 L 165.09 230.38 M 180.02 229.15 C 179.93 231.35 179.91 233.56 179.96 235.77 C 180.50 235.68 181.59 235.49 182.13 235.39 C 182.16 233.40 182.20 231.40 182.24 229.41 C 181.69 229.35 180.58 229.22 180.02 229.15 M 167.17 238.59 L 167.28 239.42 C 170.23 239.37 173.18 239.34 176.14 239.16 C 173.29 237.49 170.16 236.99 167.17 238.59 M 170.04 242.04 L 169.42 243.17 C 172.94 244.82 177.18 244.05 180.98 243.96 C 181.14 243.45 181.47 242.41 181.64 241.90 C 177.78 241.90 173.89 241.64 170.04 242.04 M 169.14 247.55 C 173.42 247.85 178.19 249.02 182.16 246.86 C 177.93 246.44 172.99 245.26 169.14 247.55 Z" />
</g>
<g id="#fd8f4bfd">
<path fill="#fd8f4b" opacity="1.00" d=" M 193.47 232.38 C 194.27 229.41 194.58 224.48 198.99 225.44 C 198.73 226.90 198.46 228.36 198.18 229.83 C 199.22 229.74 200.26 229.66 201.30 229.58 C 201.30 229.09 201.31 228.11 201.31 227.61 C 202.06 227.65 203.56 227.72 204.31 227.75 C 204.32 229.67 204.34 231.59 204.37 233.51 C 203.62 233.49 202.13 233.45 201.38 233.43 C 198.71 233.39 196.05 233.09 193.47 232.38 Z" />
</g>
<g id="#331e103c">
<path fill="#331e10" opacity="0.24" d=" M 175.02 229.31 C 175.50 228.57 176.04 227.88 176.63 227.23 C 176.80 230.94 176.61 234.66 176.63 238.38 C 178.93 238.37 181.25 238.37 183.55 238.14 L 184.79 238.03 C 185.30 242.09 186.49 246.56 184.52 250.39 C 184.47 246.96 184.94 243.46 184.21 240.07 C 181.90 238.89 179.15 239.47 176.65 239.29 C 176.59 236.94 174.86 235.73 172.94 234.85 C 174.57 234.27 176.04 233.40 176.29 231.51 C 175.39 231.49 173.59 231.44 172.70 231.41 C 172.68 230.95 172.65 230.02 172.64 229.56 C 173.23 229.50 174.42 229.37 175.02 229.31 Z" />
<path fill="#331e10" opacity="0.24" d=" M 167.17 238.59 C 170.16 236.99 173.29 237.49 176.14 239.16 C 173.18 239.34 170.23 239.37 167.28 239.42 L 167.17 238.59 Z" />
<path fill="#331e10" opacity="0.24" d=" M 196.74 237.58 C 198.29 237.57 199.85 237.56 201.41 237.56 C 201.40 239.45 201.42 241.35 201.45 243.25 C 199.79 243.35 198.14 243.51 196.49 243.69 C 196.51 243.03 196.53 241.70 196.54 241.04 C 197.89 241.67 199.22 242.31 200.57 242.96 C 200.62 241.74 200.68 240.52 200.74 239.30 C 199.95 239.02 198.37 238.45 197.58 238.17 C 197.21 238.76 196.46 239.95 196.09 240.54 C 196.25 239.80 196.58 238.32 196.74 237.58 Z" />
</g>
<g id="#281a102e">
<path fill="#281a10" opacity="0.18" d=" M 200.36 227.57 C 201.99 227.18 203.62 226.79 205.26 226.41 C 205.19 230.06 205.21 233.73 205.52 237.38 C 208.16 237.48 210.80 237.53 213.45 237.56 C 213.45 236.75 213.44 235.13 213.43 234.32 C 211.77 234.30 210.10 234.28 208.44 234.26 C 208.44 233.06 208.44 231.86 208.44 230.67 C 210.07 230.61 211.70 230.54 213.33 230.48 C 213.05 231.16 212.77 231.84 212.50 232.52 C 213.10 233.63 213.76 234.73 214.21 235.92 C 213.79 237.54 212.62 239.07 213.01 240.82 C 211.53 240.74 210.06 240.66 208.59 240.58 C 208.58 240.00 208.58 238.84 208.57 238.25 C 207.76 238.27 206.14 238.29 205.33 238.31 C 205.35 242.06 205.02 245.84 205.53 249.58 C 207.77 251.09 210.82 250.25 213.39 250.53 C 213.40 249.75 213.41 248.20 213.42 247.43 C 211.77 247.34 210.13 247.26 208.49 247.16 C 209.57 244.79 212.38 246.18 213.89 247.12 C 214.15 248.49 214.34 249.88 214.47 251.29 C 209.29 251.13 203.45 252.68 198.80 249.77 C 196.69 250.21 194.40 252.31 192.37 250.72 C 192.43 246.78 193.45 242.91 193.26 238.96 C 193.40 237.13 192.93 235.10 193.83 233.42 C 196.34 233.24 198.87 233.38 201.38 233.43 C 202.13 233.45 203.62 233.49 204.37 233.51 C 204.34 231.59 204.32 229.67 204.31 227.75 C 203.56 227.72 202.06 227.65 201.31 227.61 L 200.36 227.57 M 193.79 234.58 C 193.82 239.99 193.84 245.41 193.28 250.80 C 194.03 250.61 195.54 250.24 196.29 250.05 C 196.52 248.37 196.56 246.68 196.63 244.99 C 196.83 245.50 197.23 246.53 197.43 247.04 C 198.79 246.76 200.14 246.48 201.50 246.19 C 201.01 247.41 200.46 248.74 200.96 250.07 C 201.78 250.13 203.43 250.24 204.25 250.30 C 204.21 245.21 205.27 239.62 203.66 234.85 C 200.48 234.03 197.06 234.68 193.79 234.58 Z" />
</g>
<g id="#060c0917">
<path fill="#060c09" opacity="0.09" d=" M 151.46 229.62 C 151.96 229.63 152.96 229.66 153.46 229.67 C 153.60 235.40 153.57 241.14 153.59 246.87 C 153.03 246.87 151.91 246.87 151.35 246.87 C 151.32 241.12 151.28 235.37 151.46 229.62 Z" />
</g>
<g id="#502f1b5a">
<path fill="#502f1b" opacity="0.35" d=" M 180.02 229.15 C 180.58 229.22 181.69 229.35 182.24 229.41 C 182.20 231.40 182.16 233.40 182.13 235.39 C 181.59 235.49 180.50 235.68 179.96 235.77 C 179.91 233.56 179.93 231.35 180.02 229.15 Z" />
<path fill="#502f1b" opacity="0.35" d=" M 169.14 247.55 C 172.99 245.26 177.93 246.44 182.16 246.86 C 178.19 249.02 173.42 247.85 169.14 247.55 Z" />
</g>
<g id="#07130c20">
<path fill="#07130c" opacity="0.13" d=" M 121.37 234.66 C 121.95 234.66 123.10 234.65 123.67 234.65 C 123.71 237.03 123.73 239.41 123.75 241.79 C 123.13 241.79 121.89 241.80 121.28 241.80 C 121.30 239.42 121.33 237.04 121.37 234.66 Z" />
</g>
<g id="#fb8e4bfc">
<path fill="#fb8e4b" opacity="1.00" d=" M 193.79 234.58 C 197.06 234.68 200.48 234.03 203.66 234.85 C 205.27 239.62 204.21 245.21 204.25 250.30 C 203.43 250.24 201.78 250.13 200.96 250.07 C 200.46 248.74 201.01 247.41 201.50 246.19 C 200.14 246.48 198.79 246.76 197.43 247.04 C 197.23 246.53 196.83 245.50 196.63 244.99 C 196.56 246.68 196.52 248.37 196.29 250.05 C 195.54 250.24 194.03 250.61 193.28 250.80 C 193.84 245.41 193.82 239.99 193.79 234.58 M 196.74 237.58 C 196.58 238.32 196.25 239.80 196.09 240.54 C 196.46 239.95 197.21 238.76 197.58 238.17 C 198.37 238.45 199.95 239.02 200.74 239.30 C 200.68 240.52 200.62 241.74 200.57 242.96 C 199.22 242.31 197.89 241.67 196.54 241.04 C 196.53 241.70 196.51 243.03 196.49 243.69 C 198.14 243.51 199.79 243.35 201.45 243.25 C 201.42 241.35 201.40 239.45 201.41 237.56 C 199.85 237.56 198.29 237.57 196.74 237.58 Z" />
</g>
<g id="#329b52ec">
<path fill="#329b52" opacity="0.93" d=" M 138.29 235.33 L 140.33 235.33 C 140.34 239.86 140.78 244.44 140.09 248.94 C 139.45 249.18 138.17 249.65 137.53 249.89 C 138.24 245.07 138.41 240.20 138.29 235.33 Z" />
</g>
<g id="#32a153f5">
<path fill="#32a153" opacity="0.96" d=" M 144.73 235.28 L 146.74 235.28 C 146.55 240.14 146.44 245.03 147.31 249.84 C 146.72 249.63 145.53 249.21 144.94 249.00 C 144.36 244.45 144.71 239.85 144.73 235.28 Z" />
</g>
<g id="#fc8e4bfd">
<path fill="#fc8e4b" opacity="1.00" d=" M 205.53 249.58 C 205.02 245.84 205.35 242.06 205.33 238.31 C 206.14 238.29 207.76 238.27 208.57 238.25 C 208.58 238.84 208.58 240.00 208.59 240.58 C 210.06 240.66 211.53 240.74 213.01 240.82 C 213.15 241.53 213.43 242.95 213.57 243.66 C 212.80 243.65 211.28 243.65 210.52 243.64 L 210.41 244.55 C 209.99 244.44 209.15 244.21 208.73 244.10 C 208.67 244.87 208.55 246.39 208.49 247.16 C 210.13 247.26 211.77 247.34 213.42 247.43 C 213.41 248.20 213.40 249.75 213.39 250.53 C 210.82 250.25 207.77 251.09 205.53 249.58 Z" />
</g>
<g id="#7243257c">
<path fill="#724325" opacity="0.49" d=" M 170.04 242.04 C 173.89 241.64 177.78 241.90 181.64 241.90 C 181.47 242.41 181.14 243.45 180.98 243.96 C 177.18 244.05 172.94 244.82 169.42 243.17 L 170.04 242.04 Z" />
</g>
</svg>
