<?xml version="1.0" encoding="UTF-8" standalone="no"?>
<!DOCTYPE svg PUBLIC "-//W3C//DTD SVG 1.1//EN" "http://www.w3.org/Graphics/SVG/1.1/DTD/svg11.dtd">
<svg width="100%" height="100%" viewBox="0 0 300 300" version="1.1" xmlns="http://www.w3.org/2000/svg" xmlns:xlink="http://www.w3.org/1999/xlink" xml:space="preserve" xmlns:serif="http://www.serif.com/" style="fill-rule:evenodd;clip-rule:evenodd;stroke-linejoin:round;stroke-miterlimit:2;">
    <g transform="matrix(1,0,0,1,0,-350)">
        <g id="画板1" transform="matrix(1,0,0,1,0,350)">
            <rect x="0" y="0" width="300" height="300" style="fill:none;"/>
            <g transform="matrix(0.24,0,0,0.24,157.327707,154.420154)">
                <g transform="matrix(1,0,0,1,-625,-625)">
                    <g id="_-ff914dff" serif:id="#ff914dff" transform="matrix(4.166667,0,0,4.166667,0,0)">
                        <path d="M54.32,50.1C62.15,36.91 77.88,29.22 93.09,30.72C106.37,32.2 119.42,37.77 129.02,47.18C127.31,51.63 123.71,55.04 121.14,59.01C119.16,61.43 117.85,64.45 115.26,66.33C110.69,59.2 102.68,54.08 94.04,54.37C84.63,53.71 75.37,62.4 76.72,72.01C77.74,78.93 84.18,82.89 89.8,85.94C101.4,91.5 114.11,96.31 122.69,106.35C130.41,115.18 132.37,127.73 130.71,139.05C130.62,142.8 128.68,146.56 129.95,150.28L128.97,148.49C125.39,160.55 116.92,171.2 105.44,176.57C95.93,181.01 84.97,181.54 74.73,179.94C59.04,177.36 47.11,165.02 39.62,151.7C45.69,145.99 51.66,140.11 58.13,134.87C61.81,145.35 70.51,154.74 81.92,156.31C84.71,156.46 87.44,155.84 90.17,155.33C100.74,150.83 105.49,136.91 100.32,126.78C94.61,117.82 83.79,114.88 74.8,110.4C63.54,104.99 51.73,97.03 48.79,84.03C46.69,72.57 47.8,60.03 54.32,50.1Z" style="fill:rgb(255,145,77);fill-rule:nonzero;"/>
                        <path d="M198.16,140.47C198.67,140.44 199.69,140.38 200.2,140.35C214.78,141.96 228.48,150.16 236.77,162.26C242.41,170.68 245.94,180.78 245.71,190.98C246.35,209.2 235.8,227 220.03,235.93C217.53,237.76 213.1,238.22 212.84,241.97C212.5,246.64 212.94,251.32 212.66,255.99C212.63,258.8 210.4,261.01 208.12,262.35C204.65,262.85 201.12,262.6 197.62,262.54L197.67,260.89C202.31,260.62 208.73,262.3 210.92,256.72C210.6,256.51 209.98,256.08 209.66,255.86C205.67,255.51 201.65,255.85 197.65,255.59L197.67,254.02C202.07,253.5 206.51,254.01 210.92,253.63C211.06,252.27 211.24,250.9 211.46,249.55C206.85,249.36 202.23,249.4 197.62,249.33L197.67,247.58C202.2,247.56 206.73,247.57 211.26,247.41C211.23,246.03 211.21,244.65 211.2,243.27C207.44,242.85 203.62,242.63 199.88,243.35C199.76,242.83 199.53,241.78 199.41,241.25C202.19,241.23 204.97,241.24 207.75,241.27C207.5,239.5 208.41,237.12 206.91,235.82C203.87,235.29 200.76,235.56 197.69,235.54C197.68,235.02 197.67,233.99 197.66,233.47C199.64,233.48 201.63,233.5 203.62,233.52C203.78,228.42 202.89,222.68 206.1,218.29C208.92,214.67 213.66,213.15 216.36,209.39C219.61,204.92 220.55,198.31 217.47,193.53C214.8,189.4 208.61,189.31 204.96,192.13C206,194.34 207.94,196.36 207.74,198.97C207.99,201.91 206,204.96 202.96,205.36C199.89,204.95 197.8,202.02 197.88,199.03C197.72,196.55 199.57,194.73 200.71,192.74C199.85,192.24 199,191.74 198.15,191.24C197.95,190.26 197.75,189.28 197.55,188.31C199.26,189.43 200.99,190.56 202.7,191.69C206.58,187.48 213.86,186.88 217.95,191.08C223.15,196.83 221.9,206.38 216.77,211.77C214.12,214.87 210.07,216.38 207.56,219.6C204.89,223.65 205.9,228.76 205.68,233.32C206.86,233.88 208.05,234.44 209.24,235C209.48,237.2 209.65,239.41 209.84,241.62C211.76,238.98 214.03,236.53 217.1,235.24C233.25,227.4 243.88,209.84 243.9,191.97C244.07,181.46 240.77,170.89 234.55,162.41C226.18,150.6 212.24,143.09 197.85,142.1C197.93,141.69 198.08,140.88 198.16,140.47M199.54,198.98C199.96,200.04 200.38,201.1 200.79,202.17C201.33,202.52 202.43,203.23 202.98,203.58C203.56,203.19 204.72,202.41 205.3,202.03C205.8,200.02 205.82,197.96 205.36,195.94C204.86,195.53 203.86,194.7 203.36,194.29C200.85,194.53 200.27,196.94 199.54,198.98Z" style="fill:rgb(255,145,77);fill-rule:nonzero;"/>
                    </g>
                    <g id="_-35a958ff" serif:id="#35a958ff" transform="matrix(4.166667,0,0,4.166667,0,0)">
                        <path d="M183.45,43.36C185.43,39.89 186.23,35.94 187.05,32.07C187.2,34.04 187.27,36.02 187.64,37.96C188.69,42.68 192.28,46.39 193.25,51.14C194.12,56.17 188.98,59.24 187.76,63.71C186.1,70.06 186.87,76.71 186.73,83.21C190.23,81.58 189.32,76.99 190.25,73.91C190.66,69.27 195.32,66.82 199.26,65.53C203.3,64.29 206.91,62 210.05,59.2C207.95,62.52 206.02,66.03 205.25,69.92C204.4,73.76 203.33,78.36 199.4,80.17C195.65,81.29 191.63,81.98 188.45,84.42C186.71,85.25 187.51,87.42 187.29,88.94C187.5,105.84 187.29,122.73 187.54,139.64C188.11,139.66 189.26,139.71 189.83,139.74C191.53,134.89 190.35,128.98 194.07,124.97C197.4,121.55 202.2,120.39 206.5,118.69C210.77,117.03 214.34,114.08 217.82,111.19C214.31,116.28 211.41,121.89 210.56,128.08C209.84,133.73 206.14,139.34 200.2,140.35C199.69,140.38 198.67,140.44 198.16,140.47C198.08,140.88 197.93,141.69 197.85,142.1C197.35,156.74 198,171.4 197.57,186.05C197.05,190.37 197.83,194.7 197.72,199.04C197.64,210.52 197.77,221.99 197.66,233.47C197.67,233.99 197.68,235.02 197.69,235.54C197.73,236.43 197.81,238.22 197.85,239.12C198.39,241.93 197.85,244.76 197.67,247.58L197.62,249.33C197.62,250.89 197.66,252.45 197.67,254.02L197.65,255.59C197.64,257.35 197.68,259.12 197.67,260.89L197.62,262.54C189.62,262.46 181.61,262.62 173.61,262.45C173.63,244.18 173.72,225.91 173.54,207.64C158.88,207.78 144.22,207.69 129.56,207.69C129.46,225.96 129.52,244.23 129.53,262.5C121.52,262.53 113.5,262.54 105.49,262.5C105.5,233.85 105.56,205.21 105.44,176.57C116.92,171.2 125.39,160.55 128.97,148.49C130.47,161.62 128.71,175.05 129.84,188.16C144.38,188.39 158.93,188.1 173.48,188.3C173.84,172.38 173.53,156.45 173.63,140.53C168.1,139.41 163.83,134.9 162.98,129.33C162.06,122.68 159.34,116.42 155.41,111C159.24,114.29 163.22,117.66 168.13,119.19C173.01,120.9 178.79,122.75 181.1,127.87C182.42,131.7 182.34,135.85 183.42,139.75C183.98,139.74 185.1,139.71 185.67,139.7C185.8,131.15 185.73,122.59 185.71,114.04C182.91,112.32 180.05,110.52 176.79,109.84C173.93,109.24 170.83,108.59 168.76,106.35C166.11,103.58 165.19,99.73 164.5,96.08C163.7,91.21 161.26,86.79 158.31,82.91C161.62,85.7 165.07,88.47 169.16,90.03C172.99,91.58 177.3,92.65 180.14,95.88C184.38,100.39 181.17,108.22 186.12,112.3C186.45,103.5 186.19,94.68 186.38,85.88C183.01,81.77 177.22,81.59 172.69,79.51C169.43,77.17 168.82,72.87 167.86,69.26C167.14,65.76 165.43,62.59 163.34,59.74C163.48,59.66 163.75,59.52 163.88,59.45C168.17,64.79 175.74,64.84 180.71,69.15C184.96,72.71 181.79,79.9 186.2,83.06C186.36,77.71 186.16,72.36 186.42,67.02C186.29,60.91 179.19,57.24 180.25,50.95C180.5,48.16 182.21,45.8 183.45,43.36Z" style="fill:rgb(53,169,88);fill-rule:nonzero;"/>
                        <path d="M201.85,90.93C206.78,89.39 211.14,86.46 214.78,82.82C212.2,86.89 209.58,91.09 208.81,95.93C208.01,100.94 206.2,106.95 200.83,108.7C196.42,109.91 192,111.11 187.92,113.25C189.66,109.04 190.51,104.6 191.07,100.1C191.95,94.83 197.33,92.43 201.85,90.93Z" style="fill:rgb(53,169,88);fill-rule:nonzero;"/>
                    </g>
                </g>
            </g>
        </g>
    </g>
</svg>
